<?xml version="1.0" standalone="no"?>
<!DOCTYPE svg PUBLIC "-//W3C//DTD SVG 20010904//EN"
 "http://www.w3.org/TR/2001/REC-SVG-20010904/DTD/svg10.dtd">
<svg version="1.0" xmlns="http://www.w3.org/2000/svg"
 width="512.000000pt" height="512.000000pt" viewBox="0 0 512.000000 512.000000"
 preserveAspectRatio="xMidYMid meet">
<metadata>
Created by potrace 1.16, written by Peter Selinger 2001-2019
</metadata>
<g transform="translate(0.000000,512.000000) scale(0.100000,-0.100000)"
fill="#000000" stroke="none">
<path d="M2167 4265 c-51 -17 -101 -57 -144 -115 l-36 -48 -51 20 c-188 75
-284 88 -347 45 -90 -61 -147 -199 -156 -379 -4 -65 -1 -131 6 -167 12 -59 11
-61 -24 -130 -59 -118 -86 -228 -92 -373 l-6 -126 -66 -12 c-90 -15 -101 -19
-101 -37 0 -14 12 -15 88 -9 l87 6 30 -92 c16 -51 30 -97 30 -102 0 -5 -36
-21 -80 -36 -102 -34 -145 -57 -145 -75 0 -19 -8 -21 126 20 63 19 121 35 128
35 7 0 32 -22 54 -49 l42 -49 -73 -37 c-175 -86 -185 -141 -12 -59 64 30 117
54 120 54 2 0 37 -21 78 -47 79 -52 156 -90 255 -126 l63 -23 -71 -48 c-97
-67 -205 -170 -295 -282 -42 -52 -80 -94 -85 -94 -18 0 -83 -65 -96 -97 -42
-99 21 -222 126 -248 25 -6 25 -8 22 -73 -3 -55 1 -75 20 -111 32 -63 83 -100
144 -107 l50 -6 0 -97 c1 -75 5 -108 23 -154 45 -114 119 -184 226 -212 86
-23 311 -32 371 -15 64 18 126 79 150 148 l19 52 56 0 57 0 17 -43 c25 -64 61
-105 118 -134 48 -26 60 -27 167 -26 299 3 462 100 517 310 31 119 4 320 -58
420 -12 19 -20 35 -18 37 2 2 33 18 68 37 82 43 115 90 115 164 0 33 -6 62
-18 79 -9 15 -15 35 -12 43 4 9 -8 37 -27 67 -19 28 -49 76 -68 106 -48 78
-132 178 -193 230 -28 25 -53 50 -54 55 -1 6 39 27 89 47 84 34 197 99 261
149 l26 21 116 -50 c73 -31 119 -46 123 -39 9 15 -36 48 -126 92 l-79 38 34
48 35 48 68 -20 c38 -10 92 -28 120 -39 62 -24 71 -25 71 -5 0 20 -84 61 -227
110 -8 3 -7 17 7 52 10 26 21 72 25 102 l7 54 114 -7 c108 -6 138 0 111 22
-13 11 -137 32 -190 32 l-35 0 -7 73 c-11 112 -58 284 -105 382 l-42 89 12 87
c18 124 9 324 -19 412 -27 84 -78 142 -136 153 -60 11 -183 -11 -316 -56
l-118 -40 -103 26 c-127 32 -339 43 -453 25 l-76 -13 -41 47 c-63 71 -123 94
-191 70z m117 -96 c49 -43 99 -147 104 -218 3 -47 0 -61 -19 -85 -28 -35 -76
-56 -129 -56 l-41 0 27 35 c55 73 30 165 -53 194 -39 14 -44 13 -94 -12 -29
-14 -55 -24 -57 -22 -3 2 7 24 22 49 82 139 166 180 240 115z m1187 -49 c32
-18 59 -85 76 -191 14 -86 15 -117 5 -203 -18 -160 -39 -208 -113 -268 -72
-58 -153 -51 -227 22 -49 47 -54 50 -105 50 -41 0 -58 -5 -72 -20 -23 -26 -13
-55 18 -46 71 20 73 20 130 -32 52 -48 104 -72 153 -72 51 0 124 32 173 76
l51 46 29 -63 c16 -35 38 -95 49 -134 36 -120 54 -275 33 -275 -37 0 -168 -24
-178 -32 -28 -23 1 -30 93 -23 l94 7 0 -29 c0 -29 -14 -90 -31 -134 l-10 -26
-67 13 c-70 13 -82 11 -82 -11 0 -8 18 -19 43 -25 83 -21 82 -20 47 -69 -27
-37 -35 -42 -58 -37 -75 18 -105 19 -100 5 2 -8 20 -21 38 -30 l34 -16 -40
-25 c-275 -173 -1063 -219 -1574 -92 -103 26 -221 72 -233 91 -4 6 13 18 37
27 47 18 66 43 41 53 -9 3 -43 -5 -77 -18 l-61 -23 -39 43 c-21 24 -38 47 -38
51 0 4 38 15 85 25 69 15 85 21 85 37 0 10 -7 18 -17 18 -20 0 -135 -17 -171
-25 -20 -5 -26 2 -47 48 -13 30 -27 70 -30 90 -7 34 -6 36 27 42 18 3 71 5
118 3 69 -2 85 0 85 12 0 21 -37 28 -154 29 l-104 1 6 113 c7 141 34 243 93
357 l46 90 -17 87 c-26 131 -7 281 51 395 49 96 109 107 262 48 94 -36 123
-60 72 -60 -26 0 -41 -9 -70 -40 -37 -40 -37 -40 -114 -40 -135 0 -186 -42
-186 -152 0 -57 27 -149 58 -196 34 -53 122 -68 191 -32 37 18 131 113 131
131 0 5 16 9 35 9 39 0 84 19 105 45 13 15 29 16 131 10 96 -5 123 -4 155 10
100 42 139 129 110 250 -8 33 -13 62 -10 64 2 3 78 7 169 9 134 4 165 2 168
-9 2 -8 11 -35 20 -62 14 -42 14 -52 2 -95 -32 -103 -7 -194 64 -236 32 -19
34 -19 47 -2 11 16 8 23 -28 56 -44 42 -44 45 -22 201 3 25 1 63 -5 84 -6 22
-8 41 -5 44 2 3 35 -3 72 -14 107 -29 116 -29 194 1 162 62 312 89 359 64z
m-1289 -147 c45 -41 8 -136 -59 -149 -33 -6 -33 -6 -33 33 0 21 -7 48 -15 59
-19 25 -19 30 5 54 24 24 77 26 102 3z m-182 -59 c35 -34 33 -89 -4 -120 -43
-37 -87 -31 -111 17 -51 98 37 178 115 103z m-285 -41 c-4 -10 -9 -38 -12 -63
-5 -59 22 -105 79 -129 l42 -18 -43 -31 c-84 -61 -154 -31 -185 76 -19 70 -20
99 -3 132 15 31 52 50 96 50 28 0 32 -3 26 -17z m90 -35 c3 -21 17 -51 32 -68
19 -23 23 -34 14 -43 -33 -33 -111 52 -97 108 7 26 39 63 42 49 1 -5 5 -26 9
-46z m615 -1473 c69 -3 226 -1 350 5 l225 10 28 -31 c16 -17 26 -33 24 -36 -3
-2 -60 -11 -128 -20 -198 -25 -758 -17 -787 11 -3 4 10 22 29 42 32 33 37 35
84 30 27 -3 106 -8 175 -11z m839 -155 c62 -62 201 -259 201 -285 0 -33 -130
-104 -189 -105 -29 0 -43 9 -86 55 -28 30 -54 55 -58 55 -4 0 -7 -25 -7 -56 0
-30 -4 -53 -9 -50 -4 3 -25 33 -45 67 -29 48 -34 64 -24 70 7 5 16 9 20 9 17
0 82 67 94 97 18 42 17 117 -1 168 -8 22 -15 46 -15 53 0 22 53 -13 119 -78z
m-1239 78 c0 -2 -10 -33 -23 -69 -21 -63 -30 -74 -159 -198 -75 -72 -142 -131
-149 -131 -21 0 -79 38 -79 51 0 16 90 126 152 185 101 97 200 164 240 164 10
0 18 -1 18 -2z m1057 -57 c27 -40 31 -107 7 -152 -17 -34 -82 -69 -129 -69
-78 0 -163 74 -190 164 -8 27 -15 53 -15 58 0 4 21 8 48 9 26 0 88 6 137 13
50 8 97 13 105 12 8 -1 25 -16 37 -35z m-783 9 c65 -5 121 -11 123 -14 9 -9
-26 -98 -52 -131 -30 -41 -117 -85 -164 -85 -20 0 -55 9 -78 19 -71 33 -91
104 -53 190 20 43 20 43 63 37 23 -3 95 -10 161 -16z m396 -54 c5 -16 10 -37
10 -46 0 -21 -87 -80 -117 -80 -15 0 -76 36 -112 66 -2 2 2 23 8 46 l12 43 94
0 95 1 10 -30z m-677 -151 l25 -44 -34 -56 c-66 -111 -142 -185 -188 -185 -21
0 -76 49 -76 68 0 12 235 262 246 262 1 0 14 -20 27 -45z m508 -56 c-46 -20
-81 -69 -81 -112 0 -56 45 -112 102 -128 32 -8 46 -6 82 10 101 44 103 171 4
231 l-29 18 66 36 66 36 26 -30 c40 -48 108 -83 176 -89 l61 -6 78 -132 c90
-151 113 -168 102 -73 l-7 60 44 -20 c24 -11 58 -20 74 -20 32 0 118 37 166
71 34 24 44 20 59 -26 17 -51 -10 -103 -70 -132 -46 -24 -123 -31 -149 -14
-21 14 -41 2 -41 -24 0 -16 15 -36 44 -60 24 -19 49 -49 56 -65 11 -26 9 -32
-20 -69 -31 -38 -32 -44 -27 -94 4 -29 10 -67 13 -84 l6 -32 -63 21 c-51 17
-91 21 -201 22 -145 1 -174 -7 -152 -41 9 -15 31 -17 150 -18 116 -1 149 -5
199 -23 103 -38 108 -33 98 88 -5 65 -3 84 11 106 10 14 22 22 26 18 5 -5 14
-42 20 -82 20 -127 -13 -253 -83 -324 -66 -66 -206 -108 -362 -108 -117 0
-169 23 -203 90 -23 44 -25 86 -10 210 2 21 -2 26 -24 28 -30 4 -50 -25 -62
-90 l-7 -38 -68 0 c-66 0 -69 1 -75 26 -37 147 -266 218 -539 168 -88 -16 -88
-16 -112 6 -13 12 -26 33 -30 47 -6 24 -9 25 -52 20 -102 -11 -161 34 -170
130 -5 58 -5 61 31 96 42 42 41 40 20 72 -15 23 -14 27 7 70 l23 45 31 -30
c18 -17 48 -35 68 -41 74 -20 164 49 262 200 43 66 47 70 71 61 82 -32 206 3
277 78 l39 39 59 -40 60 -40 -40 -18z m93 -70 c48 -38 23 -109 -39 -109 -41 0
-65 22 -65 58 0 32 8 45 35 60 28 16 39 15 69 -9z m-964 -82 c0 -5 -8 -21 -19
-35 -10 -15 -30 -51 -45 -79 -35 -71 -72 -72 -119 -3 -34 49 -14 109 54 158
l41 30 44 -31 c24 -17 44 -35 44 -40z m624 -602 c125 -27 180 -82 180 -185 1
-67 -28 -120 -78 -144 -61 -29 -274 -15 -381 25 -94 35 -153 125 -163 248 -5
58 -3 64 12 58 41 -16 65 -17 131 -3 92 19 214 19 299 1z"/>
<path d="M3290 3895 c-10 -13 -11 -26 -1 -69 13 -57 9 -79 -22 -113 -22 -25
-17 -53 11 -53 47 0 80 96 66 190 -10 58 -29 75 -54 45z"/>
<path d="M2850 3530 c-16 -16 -18 -25 -11 -39 21 -39 91 -30 91 12 0 47 -45
62 -80 27z"/>
<path d="M1864 3132 c-54 -35 -78 -79 -82 -152 -3 -80 23 -133 83 -167 116
-66 248 16 248 152 0 105 -63 176 -161 182 -44 3 -64 0 -88 -15z"/>
<path d="M3095 3131 c-122 -75 -126 -248 -9 -317 59 -35 135 -31 187 9 41 31
77 100 77 145 0 65 -45 138 -102 168 -39 20 -117 18 -153 -5z m22 -77 c8 -22
-15 -44 -26 -25 -10 16 -4 41 10 41 5 0 12 -7 16 -16z"/>
<path d="M2490 2844 c-33 -24 -40 -34 -40 -66 0 -17 11 -35 32 -53 29 -25 38
-27 96 -23 55 4 68 8 88 32 53 61 12 118 -89 124 -47 3 -68 -1 -87 -14z m131
-34 c21 -12 25 -40 7 -58 -18 -18 -103 -15 -122 4 -20 19 -20 23 1 46 18 20
82 25 114 8z"/>
<path d="M2807 1884 c-13 -13 -8 -36 21 -93 22 -46 27 -69 27 -131 0 -127 -57
-205 -199 -271 -76 -35 -95 -35 -180 7 -74 36 -121 76 -154 132 -24 42 -27 56
-27 137 1 65 5 99 18 122 22 42 22 70 -2 83 -60 32 -114 -186 -77 -311 31
-106 128 -194 275 -250 48 -18 62 -20 99 -10 127 33 250 128 294 228 43 97 32
239 -25 324 -22 32 -55 48 -70 33z"/>
</g>
</svg>