<!-- <?xml version="1.0" standalone="no"?>
<!DOCTYPE svg PUBLIC "-//W3C//DTD SVG 20010904//EN"
 "http://www.w3.org/TR/2001/REC-SVG-20010904/DTD/svg10.dtd">
<svg version="1.0" xmlns="http://www.w3.org/2000/svg"
 width="109" height="57" viewBox="0 0 109 57"
 preserveAspectRatio="xMidYMid meet" fill="none">

<g transform="translate(0.000000,1024.000000) scale(0.100000,-0.100000)"
fill="#000000" stroke="none">
<path d="M8019 8673 c-54 -57 -269 -263 -662 -633 -114 -107 -221 -215 -238
-238 -29 -40 -35 -43 -63 -38 -28 6 -93 33 -138 57 -11 6 -18 6 -18 0 0 -5
-62 -61 -137 -124 -76 -63 -203 -174 -283 -247 -80 -73 -210 -190 -289 -259
-186 -162 -408 -359 -491 -437 -36 -33 -110 -100 -165 -148 -55 -49 -145 -132
-200 -185 -55 -53 -152 -144 -216 -201 -64 -58 -190 -173 -280 -256 -181 -166
-374 -340 -759 -681 -303 -270 -407 -363 -554 -502 -61 -57 -147 -133 -191
-168 -135 -109 -375 -326 -375 -339 0 -7 9 -37 21 -66 l20 -54 -78 -76 c-43
-42 -117 -111 -165 -154 -48 -44 -168 -151 -265 -240 -98 -88 -216 -194 -262
-235 -181 -160 -204 -185 -197 -216 10 -39 39 -65 71 -65 22 0 54 26 154 126
69 70 131 130 137 134 20 13 157 136 264 237 58 55 158 147 223 204 64 57 150
140 190 184 39 44 122 124 182 179 61 54 157 141 215 194 58 53 166 151 240
217 132 118 299 270 585 532 78 72 204 186 281 255 76 69 181 166 234 215 52
50 167 157 255 238 88 81 223 206 300 278 77 72 198 183 270 247 71 65 166
151 210 193 44 42 123 114 176 160 53 46 170 152 260 234 90 83 227 204 304
270 76 66 189 168 250 226 181 175 240 217 312 224 18 2 48 14 66 28 112 87
311 271 597 550 129 126 249 240 266 254 41 31 84 96 84 127 0 33 -25 56 -59
56 -21 0 -42 -14 -82 -57z"/>
<path d="M8482 8558 c-42 -40 -111 -107 -152 -149 -41 -42 -111 -109 -155
-149 -96 -88 -158 -145 -291 -270 -55 -52 -144 -133 -199 -180 -54 -47 -145
-127 -203 -177 -58 -51 -109 -93 -114 -93 -6 0 -22 9 -36 21 -15 11 -49 36
-75 55 l-48 36 -20 -26 c-27 -34 -18 -26 -229 -211 -287 -252 -567 -506 -740
-671 -52 -49 -155 -144 -228 -210 -209 -188 -332 -302 -594 -549 -134 -126
-327 -304 -428 -395 -102 -91 -230 -205 -285 -255 -55 -49 -139 -124 -185
-165 -47 -41 -200 -181 -340 -310 -262 -242 -549 -499 -725 -651 -55 -47 -125
-110 -155 -140 -30 -30 -77 -73 -104 -97 l-49 -42 30 -43 c17 -23 28 -47 26
-54 -2 -7 -43 -45 -91 -84 -48 -40 -130 -114 -182 -163 -53 -50 -159 -147
-235 -216 -77 -69 -180 -164 -230 -211 -49 -47 -146 -137 -215 -200 -200 -184
-210 -194 -210 -221 0 -40 36 -78 73 -78 28 0 49 18 163 138 149 157 305 306
580 553 284 257 366 337 396 389 35 63 211 241 398 405 69 60 224 199 345 309
121 110 261 236 310 280 50 44 126 115 170 157 163 154 516 479 690 634 99 88
256 232 350 320 148 139 255 238 470 434 28 25 84 77 125 116 41 38 172 155
290 259 118 105 235 209 260 233 25 24 101 92 169 151 68 59 170 148 226 197
56 50 128 113 160 140 33 28 88 76 124 108 65 58 65 58 77 35 7 -13 13 -35 14
-50 0 -15 5 -30 11 -34 6 -3 -2 -14 -20 -25 -16 -10 -153 -139 -303 -286 -297
-292 -374 -363 -638 -591 -96 -83 -218 -190 -270 -238 -153 -140 -437 -402
-530 -490 -74 -71 -411 -378 -585 -534 -33 -30 -114 -104 -180 -165 -66 -61
-169 -156 -230 -210 -60 -55 -144 -131 -185 -170 -41 -39 -100 -94 -130 -121
-30 -28 -136 -124 -235 -215 -99 -90 -238 -214 -309 -274 -169 -144 -476 -423
-477 -432 0 -8 45 -70 92 -126 l26 -30 64 49 c35 27 111 94 169 150 102 98
435 401 695 634 71 63 167 151 215 195 47 44 166 154 265 245 99 91 216 199
260 241 44 42 175 161 290 264 326 293 391 353 504 459 58 55 136 125 172 155
37 31 133 117 214 191 215 196 335 305 439 395 51 44 166 148 257 231 90 84
197 179 238 213 40 34 92 79 115 101 22 21 58 50 78 64 21 14 50 34 65 44 16
11 54 25 87 33 57 12 59 12 76 -11 25 -33 15 -51 -57 -104 -68 -50 -193 -158
-353 -306 -58 -53 -154 -139 -215 -191 -60 -51 -171 -150 -245 -219 -75 -69
-203 -186 -285 -260 -81 -74 -194 -178 -250 -230 -174 -163 -418 -387 -917
-840 -226 -205 -336 -305 -513 -467 -66 -60 -168 -152 -226 -204 -58 -52 -155
-139 -215 -194 -284 -258 -416 -377 -499 -447 -49 -42 -121 -109 -160 -148
-38 -39 -89 -85 -112 -101 -24 -17 -43 -36 -43 -43 0 -14 110 -122 152 -150
l27 -18 57 49 c31 26 144 129 252 228 108 99 219 200 246 225 181 161 469 421
571 515 66 62 195 179 286 261 91 82 267 242 390 355 123 113 265 241 314 285
50 43 169 151 265 239 96 88 195 177 220 199 25 21 77 69 115 106 39 36 135
125 215 195 80 71 156 141 170 155 28 27 157 149 260 245 84 79 209 187 345
300 59 50 151 127 204 172 176 151 168 145 198 139 30 -7 85 -79 77 -101 -3
-6 -29 -23 -58 -37 -29 -15 -108 -75 -175 -135 -67 -59 -184 -162 -260 -228
-138 -120 -277 -247 -486 -445 -198 -189 -486 -451 -956 -874 -134 -121 -354
-321 -489 -446 -135 -125 -313 -287 -396 -361 -82 -74 -238 -215 -345 -314
-107 -99 -253 -232 -324 -295 -244 -218 -530 -477 -554 -503 -29 -32 -24 -40
61 -97 l60 -40 54 47 c252 227 584 537 883 826 106 103 213 204 236 223 45 36
99 52 124 35 21 -14 -17 -57 -285 -322 -281 -278 -523 -505 -831 -780 -39 -35
-72 -69 -72 -74 -1 -6 16 -19 37 -30 20 -11 48 -27 61 -37 13 -10 29 -18 36
-18 20 0 395 348 902 838 128 123 247 235 264 248 25 18 46 24 85 24 29 0 55
-4 58 -8 4 -7 -263 -268 -708 -692 -73 -69 -198 -183 -279 -254 -140 -123
-197 -182 -197 -205 0 -6 30 -26 67 -45 l67 -33 135 121 c74 66 270 252 434
411 553 535 574 553 609 560 29 6 88 -7 88 -19 0 -5 -443 -443 -520 -512 -35
-33 -126 -118 -201 -189 -75 -72 -202 -191 -282 -265 -106 -97 -143 -138 -136
-146 10 -12 135 -54 161 -54 8 0 25 12 39 26 13 15 125 121 249 237 124 116
333 315 466 444 312 302 330 315 379 279 17 -13 17 -14 -8 -47 -14 -19 -142
-147 -284 -285 -250 -242 -298 -288 -582 -553 -72 -68 -129 -127 -124 -131 4
-4 47 -15 94 -25 l86 -18 104 100 c57 54 178 169 268 254 91 84 235 221 320
302 179 170 206 193 243 202 23 6 29 3 39 -18 7 -15 8 -30 3 -39 -17 -27 -413
-407 -627 -602 -158 -144 -215 -202 -207 -210 24 -24 388 -34 600 -16 222 18
521 85 729 161 375 138 717 355 993 628 277 275 463 552 599 891 61 153 104
310 144 522 50 269 58 361 52 618 -7 304 -37 481 -122 720 -18 52 -47 140 -64
195 -18 59 -72 182 -129 298 l-99 197 47 29 c81 50 190 138 310 250 63 59 147
134 186 167 68 57 218 191 276 246 50 47 28 128 -35 128 -25 0 -43 -12 -92
-62 -80 -83 -218 -212 -346 -323 -56 -49 -119 -106 -138 -126 -20 -20 -63 -55
-96 -79 -33 -23 -81 -63 -106 -87 -46 -45 -47 -45 -73 -28 -14 10 -40 44 -58
76 -17 33 -48 75 -69 93 -42 39 -42 40 41 91 44 28 143 108 290 234 68 59 378
338 390 351 3 4 80 75 172 159 93 84 175 162 183 174 33 47 5 117 -47 117 -24
0 -52 -22 -155 -122 -70 -68 -153 -148 -186 -178 -33 -30 -114 -108 -181 -172
-66 -64 -134 -127 -151 -139 -16 -12 -59 -50 -95 -84 -36 -34 -90 -80 -120
-102 -31 -22 -92 -75 -138 -118 l-82 -77 -28 17 c-15 10 -59 51 -98 91 -40 41
-81 74 -95 76 -21 3 -18 7 31 43 198 145 1141 1030 1153 1082 7 31 -27 73 -59
73 -16 0 -49 -24 -102 -72z m-920 -2577 c28 -25 33 -36 33 -75 0 -62 -42 -106
-107 -113 -40 -5 -49 -2 -81 27 -31 26 -37 39 -37 71 0 76 41 118 117 119 33
0 50 -7 75 -29z m462 -586 c1 -379 1 -380 -26 -497 -73 -315 -228 -651 -379
-822 -76 -87 -396 -334 -499 -386 -61 -30 -38 -8 56 54 52 34 81 59 85 76 4
14 7 19 8 12 1 -8 9 -5 24 8 12 12 35 28 50 36 15 8 25 19 22 23 -2 5 3 15 12
22 12 10 14 10 9 2 -10 -17 2 -16 19 1 11 10 11 16 2 25 -9 9 -8 11 6 6 13 -6
17 -2 17 14 0 18 4 20 28 15 21 -4 24 -3 12 6 -12 9 -10 10 10 8 14 -1 36 5
50 15 13 9 20 17 15 17 -6 0 2 8 16 18 34 22 68 64 109 132 18 30 48 78 65
105 44 67 106 192 145 289 34 86 102 343 121 452 11 66 14 664 4 779 l-4 50
11 -40 c8 -27 12 -164 12 -420z m-1387 -378 c107 -40 183 -146 183 -257 -1
-101 -60 -191 -155 -236 -206 -98 -429 127 -346 348 47 123 195 190 318 145z
m772 -539 c-108 -135 -243 -264 -351 -338 -98 -66 -250 -144 -268 -138 -7 2
20 17 60 33 150 60 313 192 511 411 67 74 123 134 126 134 2 0 -33 -46 -78
-102z m-940 -514 c8 -7 -84 -2 -114 6 -18 5 -2 6 40 3 39 -3 72 -7 74 -9z
m161 -4 c-8 -5 -46 -9 -85 -8 l-70 2 75 6 c41 4 80 7 85 8 6 1 3 -3 -5 -8z
m47 4 c-3 -3 -12 -4 -19 -1 -8 3 -5 6 6 6 11 1 17 -2 13 -5z m-7 -236 c0 -4
12 -8 26 -8 15 0 23 -4 18 -11 -3 -6 1 -10 12 -9 11 1 28 1 39 1 18 -2 17 -4
-5 -12 -37 -15 -360 -22 -470 -10 -81 8 -68 9 92 4 163 -4 189 -3 203 11 9 9
13 16 9 16 -3 0 -1 7 6 15 13 15 70 18 70 3z"/>
<path d="M2706 7968 c-8 -13 -17 -32 -20 -43 -6 -19 -14 -20 -266 -20 -143 0
-268 -3 -277 -7 -10 -3 -12 -7 -5 -7 11 -1 13 -72 12 -373 -2 -616 -1 -724 10
-708 6 9 10 219 10 541 l0 526 83 6 c150 12 404 8 419 -6 27 -27 63 -47 83
-47 11 0 32 14 47 30 l26 30 219 1 c120 1 245 5 278 9 37 5 -51 8 -233 7
l-292 -2 0 26 c0 53 -67 79 -94 37z"/>
<path d="M6541 7964 c-11 -8 -21 -21 -21 -28 0 -23 -34 -42 -95 -56 -33 -7
-72 -19 -87 -26 -15 -8 -36 -14 -46 -14 -22 0 -32 -18 -32 -56 0 -19 -5 -24
-25 -24 -22 0 -25 -4 -25 -34 0 -24 5 -36 18 -39 16 -4 16 -5 0 -6 -14 -1 -18
-10 -18 -41 0 -35 -3 -40 -24 -40 -18 0 -25 -7 -29 -30 -4 -18 -13 -30 -22
-30 -11 0 -15 -10 -15 -36 0 -27 -5 -37 -20 -41 -11 -3 -20 -10 -20 -15 0 -6
-16 -7 -39 -3 -36 6 -42 3 -85 -39 -25 -25 -51 -46 -56 -46 -6 0 -10 -7 -10
-15 0 -9 -16 -23 -35 -32 -19 -9 -35 -23 -35 -31 0 -10 -8 -13 -27 -9 -37 7
-72 -13 -115 -65 -20 -24 -118 -124 -218 -223 -100 -99 -253 -251 -340 -337
-137 -138 -186 -182 -165 -149 3 6 -21 13 -55 17 -50 5 -60 10 -60 25 0 11 -4
19 -10 19 -5 0 -10 9 -10 20 0 11 5 20 10 20 6 0 10 18 10 40 0 22 -4 40 -10
40 -5 0 -10 9 -10 20 0 11 -4 20 -10 20 -5 0 -10 9 -10 20 0 11 -4 20 -10 20
-5 0 -10 6 -10 14 0 7 -13 19 -30 26 -16 7 -30 19 -30 26 0 8 -5 14 -10 14 -6
0 -9 3 -8 8 2 4 -9 23 -25 43 -15 20 -27 48 -27 62 0 17 -8 31 -22 38 -13 7
-29 19 -37 26 -11 12 -15 12 -22 1 -6 -9 -9 -7 -9 10 0 12 -3 22 -7 22 -5 0
-8 -42 -9 -94 -1 -82 -5 -101 -31 -158 -33 -69 -102 -137 -181 -177 -214 -108
-492 70 -518 332 -4 40 -9 67 -11 61 -5 -15 -63 -4 -63 12 0 8 -8 14 -18 14
-10 0 -24 9 -32 20 -8 12 -27 21 -45 21 -23 1 -25 3 -7 6 31 6 27 22 -8 30
-16 3 -30 11 -30 19 0 8 -18 15 -47 19 -27 3 -61 10 -78 16 -16 6 -43 14 -58
16 -18 4 -26 10 -23 19 12 32 -14 19 -62 -29 -105 -107 -304 -422 -390 -617
-107 -243 -189 -526 -226 -780 -43 -300 -37 -621 19 -906 27 -140 48 -210 102
-351 l35 -92 -58 -54 c-33 -30 -77 -69 -99 -88 -22 -18 -63 -54 -91 -79 -27
-25 -95 -83 -149 -130 -55 -47 -129 -112 -166 -145 -102 -92 -141 -125 -151
-125 -4 0 -8 -4 -8 -9 0 -5 -25 -28 -55 -51 -39 -30 -58 -52 -65 -79 -9 -33
-8 -38 16 -59 35 -31 53 -23 144 57 41 37 89 77 105 90 17 12 68 56 115 96 47
40 128 110 180 156 52 45 145 128 206 186 96 88 112 109 117 141 3 20 9 48 15
62 5 14 9 27 8 30 -2 11 73 86 179 178 61 53 157 142 215 197 58 56 137 126
175 157 39 31 86 73 105 93 34 36 370 342 608 554 359 319 612 559 612 580 0
6 4 10 9 9 4 -2 40 30 80 70 39 39 76 72 82 72 5 0 20 10 33 23 13 12 34 29
48 37 47 28 188 168 175 174 -6 3 -4 4 5 3 9 -1 60 38 114 88 54 50 141 128
194 175 53 47 146 130 206 185 127 116 297 267 466 413 69 60 116 108 112 114
-4 6 -3 8 3 5 5 -3 17 3 26 14 9 10 13 19 9 20 -4 0 4 5 17 10 15 6 21 15 17
24 -3 10 1 15 13 15 32 0 144 83 233 173 48 48 82 87 76 87 -6 0 -16 -7 -22
-15 -7 -9 -19 -12 -34 -8 -18 4 -23 11 -19 29 2 13 1 21 -3 19 -5 -3 -11 2
-14 11 -3 8 -10 13 -14 10 -5 -3 -25 3 -44 14 -32 17 -38 17 -57 4z m-1666
-1474 c-3 -5 -13 -10 -21 -10 -8 0 -14 5 -14 10 0 6 9 10 21 10 11 0 17 -4 14
-10z"/>
<path d="M2738 7623 c6 -2 18 -2 25 0 6 3 1 5 -13 5 -14 0 -19 -2 -12 -5z"/>
<path d="M2727 7490 c3 -11 9 -23 14 -26 17 -10 49 7 49 27 0 15 -7 19 -34 19
-29 0 -33 -3 -29 -20z"/>
<path d="M5900 7399 c0 -5 5 -7 10 -4 6 3 10 8 10 11 0 2 -4 4 -10 4 -5 0 -10
-5 -10 -11z"/>
<path d="M5810 7315 c-11 -13 -10 -14 4 -9 9 3 16 10 16 15 0 13 -6 11 -20 -6z"/>
<path d="M8630 6984 c-47 -40 -35 -89 26 -108 52 -16 98 70 57 106 -33 28 -51
28 -83 2z"/>
<path d="M3912 6925 c0 -16 2 -22 5 -12 2 9 2 23 0 30 -3 6 -5 -1 -5 -18z"/>
<path d="M3926 6865 c4 -8 11 -15 16 -15 6 0 5 6 -2 15 -7 8 -14 15 -16 15 -2
0 -1 -7 2 -15z"/>
<path d="M8450 6820 c-11 -11 -21 -26 -21 -32 -7 -71 68 -106 110 -52 27 34
26 55 -2 82 -29 27 -61 28 -87 2z"/>
<path d="M3985 6790 c-3 -5 -1 -10 4 -10 6 0 11 5 11 10 0 6 -2 10 -4 10 -3 0
-8 -4 -11 -10z"/>
<path d="M4387 6779 c-12 -17 -19 -19 -35 -10 -26 14 -149 14 -157 1 -3 -5
-19 -10 -35 -10 -16 0 -36 -7 -45 -17 -14 -14 -18 -14 -26 -2 -7 11 -9 9 -9
-8 0 -25 16 -39 23 -21 3 8 6 6 6 -4 1 -14 10 -18 36 -18 19 0 35 -5 35 -11 0
-22 88 -3 140 31 42 27 103 90 86 90 -3 0 -11 -9 -19 -21z"/>
<path d="M2150 6760 c0 -5 5 -10 11 -10 5 0 7 5 4 10 -3 6 -8 10 -11 10 -2 0
-4 -4 -4 -10z"/>
<path d="M2156 6731 c-7 -11 0 -721 8 -728 3 -4 6 161 6 365 0 205 -2 372 -4
372 -3 0 -7 -4 -10 -9z"/>
<path d="M2157 5947 c-11 -50 -7 -1542 4 -1576 7 -22 8 -20 6 16 -1 23 0 40 3
38 5 -3 3 1423 -3 1515 l-2 45 -8 -38z"/>
<path d="M2151 4123 c0 -120 3 -234 8 -253 6 -24 10 36 11 185 1 121 3 233 4
249 0 16 -4 31 -11 33 -8 3 -12 -52 -12 -214z"/>
<path d="M3395 3460 c-21 -22 -43 -40 -47 -40 -4 0 -81 -71 -170 -157 -90 -87
-241 -234 -338 -327 -96 -92 -195 -189 -220 -215 -25 -26 -106 -104 -180 -175
-142 -136 -165 -165 -155 -196 7 -24 60 -35 96 -21 14 5 66 50 115 99 49 49
143 140 209 202 66 61 154 144 195 184 426 410 613 592 621 607 7 14 2 25 -22
48 -17 17 -38 31 -48 31 -9 0 -35 -18 -56 -40z"/>
<path d="M3528 3014 c-117 -114 -349 -340 -516 -503 -167 -163 -309 -302 -317
-309 -23 -21 -18 -59 9 -77 56 -37 48 -43 494 395 109 107 259 250 333 317 74
68 176 168 226 222 l93 99 -35 31 c-20 17 -44 31 -55 31 -12 0 -104 -82 -232
-206z"/>
<path d="M3674 2635 c-7 -28 0 -55 15 -55 11 0 33 59 25 71 -11 18 -34 8 -40
-16z"/>
<path d="M7500 1809 c0 -5 102 -9 235 -9 129 0 235 3 235 8 0 4 -106 8 -235 9
-134 0 -235 -3 -235 -8z"/>
<path d="M5422 1720 c0 -19 2 -27 5 -17 2 9 2 25 0 35 -3 9 -5 1 -5 -18z"/>
<path d="M5732 1700 c0 -14 2 -19 5 -12 2 6 2 18 0 25 -3 6 -5 1 -5 -13z"/>
</g>
</svg> -->

<svg width="107" height="57" viewBox="0 0 109 57" fill="none" xmlns="http://www.w3.org/2000/svg">
  <text x="10" y="50" font-size="20" fill="white">Ananya</text>
  <defs>
    <linearGradient id="paint0_linear_2205_14" x1="219.1" y1="39.9983" x2="202.599" y2="91.4037" gradientUnits="userSpaceOnUse">
      <stop stop-color="#DF8908"/>
      <stop offset="1" stop-color="#B415FF"/>
    </linearGradient>
  </defs>
</svg>

